<svg id="レイヤー_1" data-name="レイヤー 1" xmlns="http://www.w3.org/2000/svg" viewBox="0 0 132 160.22">
  <defs>
    <style>
      .cls-1 {
        fill: #fff;
      }

      .cls-2 {
        fill: #00bfff;
      }

      .cls-3 {
        fill: #ffea55;
      }
    </style>
  </defs>
  <title>アートボード 2</title>
  <g>
    <ellipse cx="66" cy="66.5" rx="66" ry="8.5"/>
    <g>
      <path d="M20,159c-7-34,6-34,14.56-57.53,1.21-3.31,19.88-14.61,22.5-16.88.3-.6,17.69-3.92,22.27-.12,5.4,4.47,18.89,12.11,24.43,20.09C111,121,125.87,140,115.76,159"/>
      <path d="M115.76,160.22a1.3,1.3,0,0,1-.57-.14,1.22,1.22,0,0,1-.5-1.65c7.77-14.6.27-29.08-7-43.08-1.83-3.54-3.56-6.88-5-10.19-3.8-5.42-11.44-10.72-17.59-15-2.64-1.83-4.92-3.41-6.54-4.76-3.7-3.06-18.57-.75-20.76.15-.92.78-3.26,2.34-6.2,4.3-4.94,3.29-15.2,10.13-15.89,12a87.32,87.32,0,0,1-8.8,17.32c-6,9.74-10.4,16.78-5.72,39.54a1.22,1.22,0,0,1-2.38.5c-4.89-23.72-.07-31.49,6-41.33a85.76,85.76,0,0,0,8.58-16.86c.89-2.46,7.84-7.24,16.82-13.23C53,86,55.3,84.46,56.16,83.75c.33-.37,1-.61,2.78-1,.16,0,16.15-3.39,21.17.77,1.55,1.28,3.79,2.84,6.38,4.64,6.34,4.4,14.24,9.88,18.27,15.7l.11.2c1.45,3.28,3.18,6.62,5,10.15,7.19,13.89,15.33,29.62,7,45.35A1.21,1.21,0,0,1,115.76,160.22Z"/>
    </g>
    <g>
      <path class="cls-1" d="M39,74c-.51,18,20,29,29,29s25.18-7.32,28-20c3.48-15.64,0-19.76,0-19.76l-1.88-10L74.77,42.89,53.91,53.43l-9.22,5.48-5.47,8.54Z"/>
      <path d="M68,104.22c-5.54,0-15.19-3.86-22.14-11C40.38,87.56,37.58,80.91,37.78,74h0L38,67.41a1.23,1.23,0,0,1,.2-.62l5.46-8.54a1.18,1.18,0,0,1,.41-.39l9.22-5.48L74.22,41.8a1.2,1.2,0,0,1,1.12,0L94.7,52.16a1.24,1.24,0,0,1,.63.85l1.83,9.75c.82,1.27,3.16,6.42,0,20.5-1.32,6-5.67,11.47-12.23,15.53C79.55,102.14,73.05,104.22,68,104.22ZM40.22,74C40,82,44.11,87.9,47.6,91.5c6.26,6.43,15.29,10.28,20.4,10.28,14.82,0,25.33-12.4,26.81-19C98,68.18,95.08,64,95.05,64a1.34,1.34,0,0,1-.24-.53L93,54,74.75,44.27,54.46,54.52l-8.9,5.29-5.13,8Z"/>
    </g>
    <path d="M76.3,82.58a1.46,1.46,0,0,0-1.77-1.24,1.62,1.62,0,1,0,.76,3.15A1.47,1.47,0,0,0,76.3,82.58Z"/>
    <path d="M61.77,82.88A1.46,1.46,0,0,0,60,81.65a1.61,1.61,0,1,0,.75,3.14A1.47,1.47,0,0,0,61.77,82.88Z"/>
    <path d="M72.45,75.71a1.59,1.59,0,0,1,.13-.13s-.09,0,0,0,.23-.15.35-.21l.18-.08.09,0a3.38,3.38,0,0,1,.42-.13,5.8,5.8,0,0,1,2-.2,4.11,4.11,0,0,1,3.39,1.63c.5.79,1.76.06,1.27-.74a5.55,5.55,0,0,0-4.57-2.35,5.84,5.84,0,0,0-4.34,1.22.74.74,0,0,0,1,1Z"/>
    <path d="M66.52,89.54a8.35,8.35,0,0,0,2.12,0,.7.7,0,0,0,.44-.33.75.75,0,0,0,.07-.57.76.76,0,0,0-.34-.43l-.17-.08a.86.86,0,0,0-.39,0h0l.19,0a8.05,8.05,0,0,1-1.9,0,.71.71,0,0,0-.51.21.72.72,0,0,0,0,1l.14.11a.71.71,0,0,0,.37.1Z"/>
    <path d="M66.21,98.72a11.06,11.06,0,0,0,1.15,0,10.14,10.14,0,0,0,1.23-.07.56.56,0,0,0,.33-.25A.54.54,0,0,0,69,98a.5.5,0,0,0-.25-.32.62.62,0,0,0-.42-.06h-1a10.49,10.49,0,0,1-1.12,0,.55.55,0,0,0-.54.55.57.57,0,0,0,.54.55Z"/>
    <path d="M67.64,95.08a11,11,0,0,1-5.24-1,.73.73,0,0,1-.23-1,.72.72,0,0,1,1-.23c1.75,1.1,7.22,1.11,8.74,0A.73.73,0,1,1,72.77,94C71.77,94.72,69.72,95.08,67.64,95.08Z"/>
    <path d="M54.14,89.58l.06-.09c.07-.1,0,0,0,0a1,1,0,0,0,.14-.15l.06-.06s.13-.1,0,0,0,0,0,0l0,0-.07,0-.19,0h0l-.2,0a.52.52,0,0,1-.31-.23l0,.07c0,.07.1.14.15.21a1.94,1.94,0,0,0,.31.26,1.83,1.83,0,0,0,.79.25,2.87,2.87,0,0,0,1.5-.41.74.74,0,0,0,.26-1,.75.75,0,0,0-1-.26l-.2.09-.09,0c-.08,0,.17-.06,0,0a2,2,0,0,1-.42.11l.2,0a2.43,2.43,0,0,1-.27,0l.19,0-.15,0c-.08,0-.1-.06,0,0,0,0-.12,0-.13-.07l.09.07L55,88.35c-.09-.08.1.15,0,0a1,1,0,0,0-.15-.21.83.83,0,0,0-.62-.29,1.35,1.35,0,0,0-.9.43,2.45,2.45,0,0,0-.46.56.73.73,0,1,0,1.26.74Z"/>
    <path d="M78.1,89.26a3.89,3.89,0,0,1,.34-.36.8.8,0,0,0,.17-.15c-.08.06-.1.07,0,0s0,0,0,0a.56.56,0,0,1-.42,0L78,88.71s0,0,0,0,0,0,0,0l.09.17a1.5,1.5,0,0,0,.3.4,1.09,1.09,0,0,0,.73.28,1.7,1.7,0,0,0,.73-.24l1-.51a.74.74,0,0,0,.26-1,.75.75,0,0,0-1-.26l-1,.5-.13.07c-.08,0,0,0,0,0s-.06,0,.08,0,.17,0,.1,0,.18.06.2.12-.11-.13,0,0,0,0,0,0L79.32,88a1.07,1.07,0,0,0-1.27-.6,2.45,2.45,0,0,0-1,.8.76.76,0,0,0-.21.52.73.73,0,0,0,.21.52.75.75,0,0,0,1,0Z"/>
    <path class="cls-2" d="M73.35,36.06C64.83,31.19,45,33.89,38,47.07S25,97,51.61,98.5c-10.93-12.23-7.78-16.67-7-23.66,1.78-1,3.1-2.41,3.93-1.62,1.56,1.48,10.06-1,12.56-2.68,2.51.45,2.22.87,6.46,0,5.14-1.07,9.56-.72,19.56-7.85,9,13,7.14,24.52-3.17,35.82,12.69-2.72,16.56-12.8,16.69-24.33S98.19,31.13,73.35,36.06Z"/>
    <path d="M84,99.47a1,1,0,0,1-.72-1.63c10.27-11.25,11.44-22,3.64-33.79-8,5.56-12.39,6.28-16.63,7-.83.13-1.64.27-2.48.44-3.4.71-4.1.62-5.62.27l-.85-.18c-2.76,1.57-11.19,4.3-13.37,2.41a7,7,0,0,0-1.35.78c-.32.21-.67.45-1,.68-.12.92-.27,1.79-.42,2.64-.92,5.24-1.71,9.77,7.22,19.77a1,1,0,0,1,.16,1.07.93.93,0,0,1-.94.55C43.8,99,38.13,95.7,34.68,89.57c-4-7.12-4-16.28-3.31-22.71.8-7.37,3-15.13,5.73-20.25,3.13-5.85,9-10.26,16.54-12.43,7.27-2.09,15-1.75,19.87.86,6.7-1.25,12.36,0,16.83,3.71,10.75,8.93,11.35,29.38,11.28,35.43-.16,14.32-6,22.82-17.46,25.27A.68.68,0,0,1,84,99.47ZM63.12,34.78a32.77,32.77,0,0,0-8.94,1.27c-7,2-12.48,6.1-15.36,11.48-5.08,9.52-8.88,29.62-2.44,41.08a17,17,0,0,0,12.89,8.67c-7.85-9.46-7-14.36-6.08-19.53.17-1,.35-2,.46-3a1,1,0,0,1,.51-.75c.47-.26.91-.55,1.34-.84,1.2-.81,2.56-1.73,3.73-.62,1,.85,8.66-1,11.34-2.8a.94.94,0,0,1,.71-.14c.54.09.95.19,1.3.27,1.22.28,1.63.38,4.8-.28.86-.18,1.7-.32,2.55-.46,4.17-.69,8.47-1.4,16.64-7.23a.94.94,0,0,1,.73-.16,1,1,0,0,1,.64.4c8.27,11.93,7.91,23.27-1.15,34.57,8.52-3,12.74-10.42,12.88-22.53.07-5.84-.49-25.53-10.58-33.91C85,36.87,79.79,35.78,73.54,37a.92.92,0,0,1-.67-.11A20.16,20.16,0,0,0,63.12,34.78Z"/>
    <path d="M84,99.47a1,1,0,0,1-.72-1.63c10.27-11.25,11.44-22,3.64-33.79-8,5.56-12.39,6.28-16.63,7-.83.13-1.64.27-2.48.44-3.4.71-4.1.62-5.62.27l-.85-.18c-2.76,1.57-11.19,4.3-13.37,2.41a7,7,0,0,0-1.35.78c-.32.21-.67.45-1,.68-.12.92-.27,1.79-.42,2.64-.92,5.24-1.71,9.77,7.22,19.77a1,1,0,0,1,.16,1.07.93.93,0,0,1-.94.55C43.8,99,38.13,95.7,34.68,89.57c-4-7.12-4-16.28-3.31-22.71.8-7.37,3-15.13,5.73-20.25,3.13-5.85,9-10.26,16.54-12.43,7.27-2.09,15-1.75,19.87.86,6.7-1.25,12.36,0,16.83,3.71,10.75,8.93,11.35,29.38,11.28,35.43-.16,14.32-6,22.82-17.46,25.27A.68.68,0,0,1,84,99.47ZM63.12,34.78a32.77,32.77,0,0,0-8.94,1.27c-7,2-12.48,6.1-15.36,11.48-5.08,9.52-8.88,29.62-2.44,41.08a17,17,0,0,0,12.89,8.67c-7.85-9.46-7-14.36-6.08-19.53.17-1,.35-2,.46-3a1,1,0,0,1,.51-.75c.47-.26.91-.55,1.34-.84,1.2-.81,2.56-1.73,3.73-.62,1,.85,8.66-1,11.34-2.8a.94.94,0,0,1,.71-.14c.54.09.95.19,1.3.27,1.22.28,1.63.38,4.8-.28.86-.18,1.7-.32,2.55-.46,4.17-.69,8.47-1.4,16.64-7.23a.94.94,0,0,1,.73-.16,1,1,0,0,1,.64.4c8.27,11.93,7.91,23.27-1.15,34.57,8.52-3,12.74-10.42,12.88-22.53.07-5.84-.49-25.53-10.58-33.91C85,36.87,79.79,35.78,73.54,37a.92.92,0,0,1-.67-.11A20.16,20.16,0,0,0,63.12,34.78Z"/>
    <g>
      <path class="cls-2" d="M88.34,62.22c-2.08,3.59-19.53,13.28-28.26,9.92"/>
      <path d="M64.33,73.82a12.84,12.84,0,0,1-4.6-.77,1,1,0,0,1-.56-1.26,1,1,0,0,1,1.26-.56c8.2,3.16,25.18-6.24,27.07-9.5a1,1,0,1,1,1.69,1C87.33,65.91,74,73.82,64.33,73.82Z"/>
    </g>
    <g>
      <path class="cls-2" d="M42.72,73.06c-.93,3.63-2.79,10.11,12.86-9.38"/>
      <path d="M42.72,78.1a1.49,1.49,0,0,1-.71-.2c-1.37-.69-.84-2.73-.28-4.89l0-.19a1,1,0,0,1,1.9.48l-.06.2a21.34,21.34,0,0,0-.51,2.41c1-.63,3.92-3.13,11.72-12.84a1,1,0,1,1,1.52,1.22C46.73,76.25,44,78.1,42.72,78.1Zm.4-1.72h0Z"/>
    </g>
    <g>
      <path class="cls-2" d="M75.18,62.22C73.09,64.77,55.35,77.15,47.59,73.8"/>
      <path d="M50.68,75.34a8.7,8.7,0,0,1-3.48-.65,1,1,0,0,1-.51-1.28A1,1,0,0,1,48,72.9c3,1.29,8.32,0,15.08-3.54,5.71-3,10.5-6.71,11.36-7.75a1,1,0,1,1,1.51,1.23C74.26,64.88,59.93,75.34,50.68,75.34Z"/>
    </g>
    <path d="M56,0c5,13,0,22-14,34.5C32.68,42.77,32.06,58.77,31,69c18-11,50-11,70,0C101,54,83,9,56,0Z"/>
    <g>
      <g>
        <path class="cls-1" d="M99.9,136.78c-4,.77-6.53-.07-7.9-3.78a6.69,6.69,0,0,1-7.76-5.14L85,124l4-2v-7l2.82-2.36,13,14.3S104,136,99.9,136.78Z"/>
        <path d="M97.45,138a6.17,6.17,0,0,1-6.08-4,7.63,7.63,0,0,1-8.08-5.95,1,1,0,0,1,0-.42l.76-3.86a1,1,0,0,1,.52-.68L88,121.4V115a1,1,0,0,1,.36-.75l2.82-2.35a1,1,0,0,1,1.34.09l13,14.29a1,1,0,0,1,.25.75c-.09,1-1,9.82-5.7,10.71h0A14.21,14.21,0,0,1,97.45,138ZM92,132a1,1,0,0,1,.92.64c1.12,3,3,3.9,6.8,3.17h0c2.59-.5,3.78-6.1,4.07-8.56L91.73,114,90,115.46V122a1,1,0,0,1-.54.87l-3.58,1.79-.62,3.17a5.74,5.74,0,0,0,6.64,4.2Z"/>
      </g>
      <g>
        <rect class="cls-1" x="87.76" y="110.16" width="5" height="9" rx="2.5" transform="translate(60.63 -28.22) rotate(26.49)"/>
        <path d="M89.36,119.93a3.49,3.49,0,0,1-1.54-.37h0a3.47,3.47,0,0,1-1.56-4.66L88,111.32a3.48,3.48,0,0,1,2-1.75,3.47,3.47,0,0,1,4.21,4.85L92.48,118a3.48,3.48,0,0,1-3.12,1.93Zm1.79-8.59a1.61,1.61,0,0,0-.48.08,1.49,1.49,0,0,0-.88.77L88,115.77a1.52,1.52,0,0,0,.69,2h0a1.42,1.42,0,0,0,1.16.08,1.47,1.47,0,0,0,.88-.76l1.79-3.58a1.53,1.53,0,0,0-.69-2A1.62,1.62,0,0,0,91.15,111.34Z"/>
      </g>
      <g>
        <rect class="cls-1" x="81.51" y="120.45" width="5" height="9" rx="2.5" transform="translate(182.68 11.21) rotate(74.86)"/>
        <path d="M82.08,129a3.47,3.47,0,0,1-3.35-2.57h0a3.47,3.47,0,0,1,2.44-4.26l3.86-1a3.39,3.39,0,0,1,2.64.34,3.47,3.47,0,0,1-.82,6.37l-3.86,1A3.56,3.56,0,0,1,82.08,129Zm-1.47-3.08A1.54,1.54,0,0,0,82.48,127l3.86-1a1.52,1.52,0,1,0-.8-2.94l-3.86,1a1.53,1.53,0,0,0-1.07,1.87Z"/>
      </g>
      <g>
        <rect class="cls-1" x="94.67" y="111.04" width="5.5" height="9.9" rx="2.5" transform="translate(61.97 -31.28) rotate(26.49)"/>
        <path d="M96.54,121.77a3.48,3.48,0,0,1-1.54-.36l-.45-.23a3.46,3.46,0,0,1-1.75-2,3.51,3.51,0,0,1,.19-2.66l2.18-4.38a3.51,3.51,0,0,1,2-1.75,3.47,3.47,0,0,1,2.66.19l.44.22a3.47,3.47,0,0,1,1.56,4.66l-2.18,4.39a3.45,3.45,0,0,1-2,1.74A3.53,3.53,0,0,1,96.54,121.77Zm1.75-9.61a1.62,1.62,0,0,0-.49.08,1.52,1.52,0,0,0-.88.77l-2.18,4.38a1.49,1.49,0,0,0-.09,1.17,1.52,1.52,0,0,0,.77.88l.45.22h0a1.53,1.53,0,0,0,2-.68l2.19-4.39a1.52,1.52,0,0,0-.69-2l-.44-.23A1.65,1.65,0,0,0,98.29,112.16Z"/>
      </g>
      <g>
        <rect class="cls-1" x="98.95" y="116.85" width="5" height="9" rx="2.5" transform="translate(64.79 -32.51) rotate(26.49)"/>
        <path d="M100.55,126.62a3.39,3.39,0,0,1-1.54-.37h0a3.47,3.47,0,0,1-1.55-4.66L99.23,118a3.49,3.49,0,0,1,4.66-1.56,3.47,3.47,0,0,1,1.56,4.66l-1.78,3.58A3.49,3.49,0,0,1,100.55,126.62Zm-.67-2.11a1.52,1.52,0,0,0,2-.69l1.78-3.58a1.46,1.46,0,0,0,.09-1.16,1.53,1.53,0,0,0-1.93-1,1.51,1.51,0,0,0-.88.76l-1.79,3.58a1.53,1.53,0,0,0-.08,1.17,1.52,1.52,0,0,0,.77.88Z"/>
      </g>
      <g>
        <rect class="cls-1" x="102.67" y="122.82" width="3.83" height="6.89" rx="1.82" transform="translate(67.31 -33.39) rotate(26.49)"/>
        <path d="M103.94,130.56a2.8,2.8,0,0,1-1.25-.3l-.16-.08a2.79,2.79,0,0,1-1.25-3.75l1.44-2.9a2.79,2.79,0,0,1,3.75-1.26l.17.08a2.8,2.8,0,0,1,1.25,3.76l-1.44,2.9A2.8,2.8,0,0,1,103.94,130.56Zm1.29-6.63a.82.82,0,0,0-.76.47L103,127.3a.85.85,0,0,0,.38,1.14l.16.08h0a.85.85,0,0,0,1.14-.38l1.45-2.9a.85.85,0,0,0-.38-1.14l-.17-.08A.78.78,0,0,0,105.23,123.93Z"/>
      </g>
    </g>
    <g>
      <g>
        <path class="cls-1" d="M37.89,127.78c4,.77,6.53-.07,7.9-3.78a6.69,6.69,0,0,0,7.76-5.14L52.79,115l-4-2v-7L46,103.64l-13,14.3S33.79,127,37.89,127.78Z"/>
        <path d="M40.34,129a14.21,14.21,0,0,1-2.63-.29h0C33,127.85,32.1,119,32,118a1,1,0,0,1,.25-.75l13-14.29a1,1,0,0,1,1.35-.09l2.82,2.35a1,1,0,0,1,.35.75v6.4l3.46,1.73a1,1,0,0,1,.52.68l.76,3.86a.85.85,0,0,1,0,.42,7.62,7.62,0,0,1-8.08,6A6.16,6.16,0,0,1,40.34,129Zm-2.27-2.2c3.84.73,5.68-.13,6.81-3.17a1,1,0,0,1,1-.63,5.73,5.73,0,0,0,6.63-4.2l-.62-3.17-3.57-1.79a1,1,0,0,1-.54-.87v-6.54L46.06,105,34,118.27c.29,2.46,1.49,8.06,4.07,8.56Z"/>
      </g>
      <g>
        <rect class="cls-1" x="45.03" y="101.16" width="5" height="9" rx="2.5" transform="translate(137.21 179.02) rotate(153.51)"/>
        <path d="M48.43,110.93A3.48,3.48,0,0,1,45.31,109l-1.78-3.58a3.48,3.48,0,0,1-.19-2.65,3.47,3.47,0,0,1,6.41-.45l1.79,3.58A3.49,3.49,0,0,1,50,110.56,3.53,3.53,0,0,1,48.43,110.93Zm-1.79-8.59a1.65,1.65,0,0,0-.68.16,1.53,1.53,0,0,0-.76.88,1.49,1.49,0,0,0,.08,1.17l1.78,3.58a1.52,1.52,0,0,0,2,.68h0a1.51,1.51,0,0,0,.69-2L48,103.19a1.49,1.49,0,0,0-.88-.77A1.56,1.56,0,0,0,46.64,102.34Z"/>
      </g>
      <g>
        <rect class="cls-1" x="51.28" y="111.45" width="5" height="9" rx="2.5" transform="matrix(-0.26, 0.97, -0.97, -0.26, 179.76, 94.33)"/>
        <path d="M55.71,120a3.61,3.61,0,0,1-.91-.12l-3.86-1a3.48,3.48,0,0,1-.82-6.37,3.39,3.39,0,0,1,2.64-.34l3.86,1a3.48,3.48,0,0,1,2.45,4.26h0A3.49,3.49,0,0,1,55.71,120Zm-3.86-6a1.52,1.52,0,0,0-.4,3l3.86,1a1.53,1.53,0,0,0,1.87-1.08h0A1.53,1.53,0,0,0,56.11,115l-3.86-1A1.37,1.37,0,0,0,51.85,113.91Z"/>
      </g>
      <g>
        <rect class="cls-1" x="37.63" y="102.04" width="5.5" height="9.9" rx="2.5" transform="translate(124.24 184.74) rotate(153.51)"/>
        <path d="M41.25,112.77a3.53,3.53,0,0,1-1.11-.18,3.45,3.45,0,0,1-2-1.74L36,106.46a3.47,3.47,0,0,1,1.56-4.66l.45-.22a3.44,3.44,0,0,1,2.65-.19,3.51,3.51,0,0,1,2,1.75l2.18,4.38a3.46,3.46,0,0,1-1.56,4.66l-.45.23A3.45,3.45,0,0,1,41.25,112.77Zm-1.74-9.61a1.58,1.58,0,0,0-.68.16l-.45.23a1.49,1.49,0,0,0-.77.88,1.47,1.47,0,0,0,.09,1.16L39.88,110a1.54,1.54,0,0,0,.88.76,1.51,1.51,0,0,0,1.16-.08h0l.44-.22a1.52,1.52,0,0,0,.77-.88,1.53,1.53,0,0,0-.08-1.17L40.87,104a1.49,1.49,0,0,0-.88-.77A1.61,1.61,0,0,0,39.51,103.16Z"/>
      </g>
      <g>
        <rect class="cls-1" x="33.84" y="107.85" width="5" height="9" rx="2.5" transform="translate(118.99 196.69) rotate(153.51)"/>
        <path d="M37.24,117.62a3.46,3.46,0,0,1-3.11-1.93l-1.79-3.58a3.47,3.47,0,0,1,4.21-4.84,3.4,3.4,0,0,1,2,1.74l1.79,3.58a3.46,3.46,0,0,1,.18,2.66,3.41,3.41,0,0,1-1.74,2h0A3.46,3.46,0,0,1,37.24,117.62ZM35.45,109a1.52,1.52,0,0,0-1.36,2.2l1.78,3.58a1.53,1.53,0,1,0,2.73-1.36l-1.78-3.58a1.57,1.57,0,0,0-.88-.76A1.4,1.4,0,0,0,35.45,109Z"/>
      </g>
      <g>
        <rect class="cls-1" x="31.29" y="113.82" width="3.83" height="6.89" rx="1.82" transform="translate(115.24 207.41) rotate(153.51)"/>
        <path d="M33.85,121.56a2.79,2.79,0,0,1-2.5-1.55l-1.45-2.9a2.8,2.8,0,0,1,1.25-3.76l.17-.08a2.82,2.82,0,0,1,2.13-.15,2.79,2.79,0,0,1,1.62,1.41l1.45,2.9a2.8,2.8,0,0,1-1.26,3.75l-.16.08A2.8,2.8,0,0,1,33.85,121.56Zm-1.28-6.63a.85.85,0,0,0-.38.09l-.17.08a.87.87,0,0,0-.38,1.14l1.45,2.9a.85.85,0,0,0,1.14.38h0l.16-.08a.85.85,0,0,0,.38-1.14l-1.45-2.9a.83.83,0,0,0-.49-.43A.75.75,0,0,0,32.57,114.93Z"/>
      </g>
    </g>
    <g>
      <circle class="cls-1" cx="67" cy="135" r="17"/>
      <path d="M67,153.22A18.22,18.22,0,1,1,85.22,135,18.24,18.24,0,0,1,67,153.22Zm0-34A15.78,15.78,0,1,0,82.78,135,15.8,15.8,0,0,0,67,119.22Z"/>
    </g>
    <path class="cls-3" d="M66,58c11.52,0,22.34.38,31.76,1A29.2,29.2,0,0,0,95,48c-13-7-44-9-59,1a26,26,0,0,0-1.83,10C43.61,58.38,54.46,58,66,58Z"/>
    <path class="cls-2" d="M77,133a2,2,0,0,1-1.9-1.37,8.12,8.12,0,0,0-3.9-4.8,2,2,0,0,1,1.6-3.66,12.17,12.17,0,0,1,6.1,7.2,2,2,0,0,1-1.27,2.53A2,2,0,0,1,77,133Z"/>
  </g>
</svg>
